<svg width="21" height="21" viewBox="0 0 21 21" fill="none" xmlns="http://www.w3.org/2000/svg">
<path d="M1.3125 10.5C1.3125 12.3171 1.85134 14.0934 2.86087 15.6043C3.87041 17.1152 5.3053 18.2928 6.9841 18.9881C8.66289 19.6835 10.5102 19.8655 12.2924 19.511C14.0746 19.1565 15.7116 18.2814 16.9965 16.9965C18.2814 15.7116 19.1565 14.0746 19.511 12.2924C19.8655 10.5102 19.6835 8.66289 18.9881 6.9841C18.2928 5.3053 17.1152 3.87041 15.6043 2.86087C14.0934 1.85134 12.3171 1.3125 10.5 1.3125C8.06332 1.3125 5.72645 2.28047 4.00346 4.00346C2.28047 5.72645 1.3125 8.06332 1.3125 10.5ZM5.25 9.84375H13.2234L9.56156 6.16416L10.5 5.25L15.75 10.5L10.5 15.75L9.56156 14.8135L13.2234 11.1562H5.25V9.84375Z" fill="currentColor"/>
</svg>
