<svg width="21" height="21" viewBox="0 0 24 24" fill="none" xmlns="http://www.w3.org/2000/svg">
<path d="M22.5 12C22.5 9.9233 21.8842 7.89323 20.7304 6.16651C19.5767 4.4398 17.9368 3.09399 16.0182 2.29927C14.0996 1.50455 11.9884 1.29661 9.95155 1.70176C7.91475 2.1069 6.04383 3.10693 4.57538 4.57538C3.10693 6.04383 2.1069 7.91475 1.70176 9.95155C1.29661 11.9884 1.50455 14.0996 2.29927 16.0182C3.09399 17.9368 4.4398 19.5767 6.16651 20.7304C7.89323 21.8842 9.9233 22.5 12 22.5C14.7848 22.5 17.4555 21.3938 19.4246 19.4246C21.3938 17.4555 22.5 14.7848 22.5 12ZM18 12.75L8.8875 12.75L13.0725 16.9553L12 18L6 12L12 6L13.0725 7.07025L8.8875 11.25L18 11.25V12.75Z" fill="currentColor"/>
</svg>
