<svg width="24" height="24" viewBox="0 0 24 24" fill="none" xmlns="http://www.w3.org/2000/svg">
<path d="M22.5 17.5365L21 16.7865V15C20.9982 13.9375 20.6208 12.9099 19.9346 12.0988C19.2484 11.2877 18.2975 10.7453 17.25 10.5675V9H15.75V10.5675C14.7025 10.7453 13.7516 11.2877 13.0654 12.0988C12.3792 12.9099 12.0018 13.9375 12 15V16.7865L10.5 17.5365V21H15V22.5H18V21H22.5V17.5365ZM21 19.5H12V18.4635L13.5 17.7135V15C13.5 14.2044 13.8161 13.4413 14.3787 12.8787C14.9413 12.3161 15.7044 12 16.5 12C17.2956 12 18.0587 12.3161 18.6213 12.8787C19.1839 13.4413 19.5 14.2044 19.5 15V17.7135L21 18.4635V19.5Z" fill="white"/>
<path d="M21 4.5C21 4.10218 20.842 3.72064 20.5607 3.43934C20.2794 3.15804 19.8978 3 19.5 3H16.5V1.5H15V3H9V1.5H7.5V3H4.5C4.10218 3 3.72064 3.15804 3.43934 3.43934C3.15804 3.72064 3 4.10218 3 4.5V19.5C3 19.8978 3.15804 20.2794 3.43934 20.5607C3.72064 20.842 4.10218 21 4.5 21H7.5V19.5H4.5V4.5H7.5V6H9V4.5H15V6H16.5V4.5H19.5V9H21V4.5Z" fill="white"/>
</svg>
