<svg width="18" height="18" viewBox="0 0 18 18" fill="none" xmlns="http://www.w3.org/2000/svg">
<path d="M8.21517 8.345C7.52294 8.345 6.84625 8.13973 6.27068 7.75515C5.69511 7.37056 5.2465 6.82394 4.98159 6.18439C4.71669 5.54485 4.64738 4.84112 4.78242 4.16219C4.91747 3.48325 5.25082 2.85961 5.7403 2.37013C6.22978 1.88065 6.85342 1.5473 7.53236 1.41225C8.21129 1.27721 8.91502 1.34652 9.55456 1.61142C10.1941 1.87633 10.7407 2.32493 11.1253 2.90051C11.5099 3.47608 11.7152 4.15277 11.7152 4.845C11.7152 5.77326 11.3464 6.6635 10.69 7.31988C10.0337 7.97625 9.14343 8.345 8.21517 8.345ZM8.21517 2.385C7.72072 2.385 7.23737 2.53163 6.82625 2.80633C6.41512 3.08103 6.09469 3.47148 5.90547 3.92829C5.71626 4.38511 5.66675 4.88778 5.76321 5.37273C5.85967 5.85768 6.09777 6.30314 6.44741 6.65277C6.79704 7.0024 7.2425 7.2405 7.72745 7.33697C8.2124 7.43343 8.71507 7.38392 9.17188 7.1947C9.6287 7.00548 10.0191 6.68505 10.2938 6.27393C10.5686 5.86281 10.7152 5.37946 10.7152 4.885C10.7152 4.5567 10.6505 4.23161 10.5249 3.92829C10.3992 3.62498 10.2151 3.34938 9.98294 3.11724C9.75079 2.88509 9.47519 2.70094 9.17188 2.5753C8.86857 2.44967 8.54348 2.385 8.21517 2.385ZM11.0002 8.95C8.2944 8.34077 5.46359 8.63404 2.94017 9.785C2.59312 9.95078 2.3003 10.2117 2.09582 10.5375C1.89134 10.8633 1.78361 11.2404 1.78517 11.625V14.6C1.78517 14.6657 1.79811 14.7307 1.82323 14.7913C1.84836 14.852 1.88519 14.9071 1.93162 14.9536C1.97805 15 2.03317 15.0368 2.09383 15.0619C2.15449 15.0871 2.21951 15.1 2.28517 15.1C2.35083 15.1 2.41585 15.0871 2.47651 15.0619C2.53718 15.0368 2.5923 15 2.63873 14.9536C2.68516 14.9071 2.72199 14.852 2.74711 14.7913C2.77224 14.7307 2.78517 14.6657 2.78517 14.6V11.625C2.78082 11.4304 2.83338 11.2387 2.93641 11.0735C3.03944 10.9083 3.18846 10.7767 3.36517 10.695C4.88526 9.99295 6.54081 9.63282 8.21517 9.64C9.15332 9.6389 10.0883 9.74968 11.0002 9.97V8.95ZM11.0702 13.705H14.1402V14.405H11.0702V13.705Z" fill="currentColor"/>
<path d="M16.585 10.735H14V11.735H16.085V15.92H9V11.735H12.15V11.945C12.15 12.0776 12.2027 12.2048 12.2964 12.2986C12.3902 12.3923 12.5174 12.445 12.65 12.445C12.7826 12.445 12.9098 12.3923 13.0036 12.2986C13.0973 12.2048 13.15 12.0776 13.15 11.945V10C13.15 9.86739 13.0973 9.74021 13.0036 9.64645C12.9098 9.55268 12.7826 9.5 12.65 9.5C12.5174 9.5 12.3902 9.55268 12.2964 9.64645C12.2027 9.74021 12.15 9.86739 12.15 10V10.735H8.5C8.36739 10.735 8.24021 10.7877 8.14645 10.8814C8.05268 10.9752 8 11.1024 8 11.235V16.42C8 16.5526 8.05268 16.6798 8.14645 16.7736C8.24021 16.8673 8.36739 16.92 8.5 16.92H16.585C16.7176 16.92 16.8448 16.8673 16.9386 16.7736C17.0323 16.6798 17.085 16.5526 17.085 16.42V11.235C17.085 11.1024 17.0323 10.9752 16.9386 10.8814C16.8448 10.7877 16.7176 10.735 16.585 10.735Z" fill="currentColor"/>
</svg>
