<svg width="24" height="24" viewBox="0 0 24 24" fill="none" xmlns="http://www.w3.org/2000/svg">
<path d="M23 19C23 20.0609 22.5786 21.0783 21.8284 21.8284C21.0783 22.5786 20.0609 23 19 23H17V21H19C19.5304 21 20.0391 20.7893 20.4142 20.4142C20.7893 20.0391 21 19.5304 21 19C21 18.4696 20.7893 17.9609 20.4142 17.5858C20.0391 17.2107 19.5304 17 19 17H17V15H19C20.0609 15 21.0783 15.4214 21.8284 16.1716C22.5786 16.9217 23 17.9391 23 19ZM9 19C9 17.9391 9.42143 16.9217 10.1716 16.1716C10.9217 15.4214 11.9391 15 13 15H15V17H13C12.4696 17 11.9609 17.2107 11.5858 17.5858C11.2107 17.9609 11 18.4696 11 19C11 19.5304 11.2107 20.0391 11.5858 20.4142C11.9609 20.7893 12.4696 21 13 21H15V23H13C11.9391 23 10.9217 22.5786 10.1716 21.8284C9.42143 21.0783 9 20.0609 9 19Z" fill="currentColor"/>
<path d="M14 18H18V20H14V18ZM9 5C8.40666 5 7.82664 5.17595 7.33329 5.50559C6.83994 5.83524 6.45542 6.30377 6.22836 6.85195C6.0013 7.40013 5.94189 8.00333 6.05764 8.58527C6.1734 9.16721 6.45912 9.70176 6.87868 10.1213C7.29824 10.5409 7.83279 10.8266 8.41473 10.9424C8.99667 11.0581 9.59987 10.9987 10.1481 10.7716C10.6962 10.5446 11.1648 10.1601 11.4944 9.66671C11.8241 9.17336 12 8.59334 12 8C11.9974 7.20516 11.6804 6.44363 11.1184 5.88159C10.5564 5.31955 9.79484 5.00264 9 5ZM9 9C8.80222 9 8.60888 8.94135 8.44443 8.83147C8.27998 8.72159 8.15181 8.56541 8.07612 8.38268C8.00043 8.19996 7.98063 7.99889 8.01921 7.80491C8.0578 7.61093 8.15304 7.43275 8.29289 7.29289C8.43275 7.15304 8.61093 7.0578 8.80491 7.01921C8.99889 6.98063 9.19996 7.00043 9.38268 7.07612C9.56541 7.15181 9.72159 7.27998 9.83147 7.44443C9.94135 7.60888 10 7.80222 10 8C9.99921 8.26497 9.8936 8.51887 9.70623 8.70623C9.51887 8.8936 9.26497 8.99921 9 9ZM5.31 15C6.41088 14.2886 7.6894 13.9005 9 13.88C9.26045 13.8844 9.52033 13.9058 9.778 13.944C10.7396 13.3276 11.8578 13 13 13H13.254C11.9437 12.2989 10.4858 11.9185 9 11.89C6.97 11.89 3 12.96 3 15.47V17H7.349C7.61074 16.2622 8.01432 15.5828 8.537 15H5.31Z" fill="currentColor"/>
<path d="M16 2.0002H11.82C11.6152 1.41564 11.2339 0.909159 10.7287 0.550821C10.2235 0.192483 9.61939 0 9 0C8.38061 0 7.77654 0.192483 7.27133 0.550821C6.76612 0.909159 6.38476 1.41564 6.18 2.0002H2C1.47005 2.00179 0.962265 2.21301 0.587535 2.58774C0.212805 2.96247 0.00158273 3.47026 0 4.0002L0 18.0002C0.00158273 18.5301 0.212805 19.0379 0.587535 19.4127C0.962265 19.7874 1.47005 19.9986 2 20.0002H7.141C6.9521 19.3469 6.9521 18.6535 7.141 18.0002H2V4.0002H16V13.0002H18V4.0002C17.9984 3.47026 17.7872 2.96247 17.4125 2.58774C17.0377 2.21301 16.5299 2.00179 16 2.0002ZM9 3.2502C8.80157 3.24863 8.61172 3.16911 8.4714 3.0288C8.33109 2.88849 8.25157 2.69863 8.25 2.5002C8.25 2.30129 8.32902 2.11052 8.46967 1.96987C8.61032 1.82922 8.80109 1.7502 9 1.7502C9.19891 1.7502 9.38968 1.82922 9.53033 1.96987C9.67098 2.11052 9.75 2.30129 9.75 2.5002C9.74843 2.69863 9.66891 2.88849 9.5286 3.0288C9.38828 3.16911 9.19843 3.24863 9 3.2502Z" fill="currentColor"/>
</svg>
