<svg width="31" height="31" viewBox="0 0 31 31" fill="none" xmlns="http://www.w3.org/2000/svg">
<path d="M18.4277 6.24031L22.1018 9.91442M9.01826 9.01779H5.15349C4.81182 9.01779 4.48415 9.15352 4.24256 9.39512C4.00096 9.63671 3.86523 9.96438 3.86523 10.3061V23.1886C3.86523 23.5303 4.00096 23.858 4.24256 24.0996C4.48415 24.3411 4.81182 24.4769 5.15349 24.4769H19.3243C19.666 24.4769 19.9936 24.3411 20.2352 24.0996C20.4768 23.858 20.6126 23.5303 20.6126 23.1886V17.3915M23.716 4.62484C23.9574 4.86614 24.1488 5.15263 24.2795 5.46794C24.4101 5.78326 24.4774 6.12123 24.4774 6.46254C24.4774 6.80385 24.4101 7.14181 24.2795 7.45713C24.1488 7.77245 23.9574 8.05894 23.716 8.30024L14.8991 17.1171L10.3065 18.0356L11.225 13.443L20.0419 4.62613C20.283 4.38463 20.5693 4.19303 20.8845 4.06231C21.1998 3.93159 21.5377 3.8643 21.8789 3.8643C22.2202 3.8643 22.5581 3.93159 22.8733 4.06231C23.1885 4.19303 23.4749 4.38463 23.716 4.62613V4.62484Z" stroke="white" stroke-width="2" stroke-linecap="round" stroke-linejoin="round"/>
</svg>
