<svg width="22" height="22" viewBox="0 0 22 22" fill="none" xmlns="http://www.w3.org/2000/svg">
<path d="M19.25 10.667C19.6797 10.9606 20.0628 11.2936 20.3994 11.666C20.736 12.0384 21.026 12.4466 21.2695 12.8906C21.513 13.3346 21.6921 13.8037 21.8066 14.2979C21.9212 14.792 21.9857 15.2969 22 15.8125C22 16.6647 21.8389 17.4668 21.5166 18.2188C21.1943 18.9707 20.7503 19.626 20.1846 20.1846C19.6188 20.7432 18.9635 21.1836 18.2188 21.5059C17.474 21.8281 16.6719 21.9928 15.8125 22C15.1608 22 14.5306 21.9033 13.9219 21.71C13.3132 21.5166 12.7546 21.2373 12.2461 20.8721C11.7376 20.5068 11.2865 20.07 10.8926 19.5615C10.4987 19.0531 10.1943 18.4909 9.97949 17.875H1.375V1.375H4.125V0H5.5V1.375H15.125V0H16.5V1.375H19.25V10.667ZM2.75 2.75V5.5H17.875V2.75H16.5V4.125H15.125V2.75H5.5V4.125H4.125V2.75H2.75ZM9.65723 16.5C9.63574 16.278 9.625 16.0488 9.625 15.8125C9.625 15.1966 9.71094 14.5986 9.88281 14.0186C10.0547 13.4385 10.3161 12.8906 10.667 12.375H9.625V11H11V11.9238C11.2936 11.5586 11.6195 11.2363 11.9775 10.957C12.3356 10.6777 12.7223 10.4378 13.1377 10.2373C13.5531 10.0368 13.9863 9.88639 14.4375 9.78613C14.8887 9.68587 15.347 9.63216 15.8125 9.625C16.5286 9.625 17.2161 9.74316 17.875 9.97949V6.875H2.75V16.5H9.65723ZM15.8125 20.625C16.4785 20.625 17.1016 20.4997 17.6816 20.249C18.2617 19.9984 18.7702 19.6546 19.207 19.2178C19.6439 18.7809 19.9876 18.2725 20.2383 17.6924C20.4889 17.1123 20.6178 16.4857 20.625 15.8125C20.625 15.1465 20.4997 14.5234 20.249 13.9434C19.9984 13.3633 19.6546 12.8548 19.2178 12.418C18.7809 11.9811 18.2725 11.6374 17.6924 11.3867C17.1123 11.1361 16.4857 11.0072 15.8125 11C15.1465 11 14.5234 11.1253 13.9434 11.376C13.3633 11.6266 12.8548 11.9704 12.418 12.4072C11.9811 12.8441 11.6374 13.3525 11.3867 13.9326C11.1361 14.5127 11.0072 15.1393 11 15.8125C11 16.4785 11.1253 17.1016 11.376 17.6816C11.6266 18.2617 11.9704 18.7702 12.4072 19.207C12.8441 19.6439 13.3525 19.9876 13.9326 20.2383C14.5127 20.4889 15.1393 20.6178 15.8125 20.625ZM16.5 15.125H18.5625V16.5H15.125V12.375H16.5V15.125ZM4.125 11H5.5V12.375H4.125V11ZM6.875 11H8.25V12.375H6.875V11ZM6.875 8.25H8.25V9.625H6.875V8.25ZM6.875 13.75H8.25V15.125H6.875V13.75ZM11 9.625H9.625V8.25H11V9.625ZM13.75 9.625H12.375V8.25H13.75V9.625ZM4.125 8.25H5.5V9.625H4.125V8.25Z" fill="currentColor"/>
</svg>
