<svg width="24" height="24" viewBox="0 0 24 24" fill="none" xmlns="http://www.w3.org/2000/svg">
<path d="M11.9932 1.99884C12.5488 1.99884 13.0925 2.04281 13.6242 2.13076L11.7533 4.00166C10.1936 4.04847 8.68168 4.55065 7.40392 5.4463C6.12616 6.34195 5.13841 7.59192 4.56243 9.04213C3.98645 10.4923 3.84742 12.0794 4.16247 13.6077C4.47753 15.1359 5.2329 16.5386 6.33547 17.6428C7.43804 18.747 8.83961 19.5044 10.3674 19.8217C11.8952 20.1389 13.4825 20.0022 14.9335 19.4283C16.3846 18.8545 17.636 17.8685 18.5335 16.5921C19.431 15.3156 19.9354 13.8045 19.9845 12.2448L21.8574 10.3739C21.944 10.9003 21.9873 11.44 21.9873 11.993C21.9873 13.9696 21.4011 15.9019 20.303 17.5454C19.2048 19.1889 17.6439 20.4699 15.8177 21.2263C13.9916 21.9828 11.9821 22.1807 10.0434 21.7951C8.10473 21.4094 6.32394 20.4576 4.92624 19.0599C3.52854 17.6622 2.57669 15.8814 2.19106 13.9427C1.80544 12.0041 2.00335 9.99457 2.75979 8.16838C3.51622 6.34219 4.79719 4.78132 6.44072 3.68315C8.08424 2.58499 10.0165 1.99884 11.9932 1.99884ZM20.8699 3.12218C20.5147 2.76687 20.0929 2.48502 19.6287 2.29272C19.1645 2.10042 18.667 2.00145 18.1645 2.00145C17.6621 2.00145 17.1646 2.10042 16.7004 2.29272C16.2362 2.48502 15.8144 2.76687 15.4591 3.12218L10.2942 8.28715C10.1854 8.39619 10.1033 8.52891 10.0543 8.67492L8.08745 14.5115C8.02217 14.7054 8.01229 14.9137 8.05892 15.1129C8.10555 15.3121 8.20685 15.4943 8.35142 15.6391C8.49598 15.7839 8.67808 15.8854 8.87722 15.9323C9.07636 15.9793 9.28464 15.9697 9.47863 15.9047L15.3152 13.9418C15.4619 13.8931 15.5954 13.811 15.705 13.702L20.8699 8.535C21.2253 8.17974 21.5071 7.75797 21.6994 7.29377C21.8917 6.82957 21.9907 6.33204 21.9907 5.82959C21.9907 5.32714 21.8917 4.82961 21.6994 4.36541C21.5071 3.90121 21.2253 3.47744 20.8699 3.12218ZM16.8723 4.53735C17.215 4.19463 17.6798 4.00209 18.1645 4.00209C18.6492 4.00209 19.114 4.19463 19.4568 4.53735C19.7995 4.88007 19.992 5.34491 19.992 5.82959C19.992 6.31427 19.7995 6.77911 19.4568 7.12183L14.4557 12.1189L10.56 13.4301L11.8712 9.53641L16.8723 4.53735Z" fill="white"/>
</svg>
