<svg width="16" height="16" viewBox="0 0 16 16" fill="none" xmlns="http://www.w3.org/2000/svg">
<path d="M9.125 7.39062C9.32292 7.46875 9.51562 7.55469 9.70312 7.64844C9.89062 7.74219 10.0729 7.84896 10.25 7.96875C10.1354 8.09375 10.0312 8.22396 9.9375 8.35938C9.84375 8.49479 9.75781 8.64062 9.67969 8.79688C9.27865 8.53646 8.85156 8.33854 8.39844 8.20312C7.94531 8.06771 7.47917 8 7 8C6.54167 8 6.09896 8.0599 5.67188 8.17969C5.24479 8.29948 4.84635 8.46615 4.47656 8.67969C4.10677 8.89323 3.77083 9.15365 3.46875 9.46094C3.16667 9.76823 2.90625 10.1068 2.6875 10.4766C2.46875 10.8464 2.29948 11.2448 2.17969 11.6719C2.0599 12.099 2 12.5417 2 13H1C1 12.375 1.09115 11.7734 1.27344 11.1953C1.45573 10.6172 1.71875 10.0833 2.0625 9.59375C2.40625 9.10417 2.8125 8.66927 3.28125 8.28906C3.75 7.90885 4.28125 7.60938 4.875 7.39062C4.28646 7.00521 3.82812 6.52083 3.5 5.9375C3.17188 5.35417 3.00521 4.70833 3 4C3 3.44792 3.10417 2.92969 3.3125 2.44531C3.52083 1.96094 3.80469 1.53646 4.16406 1.17188C4.52344 0.807292 4.94792 0.520833 5.4375 0.3125C5.92708 0.104167 6.44792 0 7 0C7.55208 0 8.07031 0.104167 8.55469 0.3125C9.03906 0.520833 9.46354 0.804688 9.82812 1.16406C10.1927 1.52344 10.4792 1.94792 10.6875 2.4375C10.8958 2.92708 11 3.44792 11 4C11 4.34375 10.9583 4.67969 10.875 5.00781C10.7917 5.33594 10.6667 5.64583 10.5 5.9375C10.3333 6.22917 10.138 6.4974 9.91406 6.74219C9.6901 6.98698 9.42708 7.20312 9.125 7.39062ZM4 4C4 4.41667 4.07812 4.80469 4.23438 5.16406C4.39062 5.52344 4.60417 5.84115 4.875 6.11719C5.14583 6.39323 5.46354 6.60938 5.82812 6.76562C6.19271 6.92188 6.58333 7 7 7C7.41146 7 7.79948 6.92188 8.16406 6.76562C8.52865 6.60938 8.84635 6.39583 9.11719 6.125C9.38802 5.85417 9.60417 5.53646 9.76562 5.17188C9.92708 4.80729 10.0052 4.41667 10 4C10 3.58854 9.92188 3.20052 9.76562 2.83594C9.60938 2.47135 9.39583 2.15365 9.125 1.88281C8.85417 1.61198 8.53385 1.39583 8.16406 1.23438C7.79427 1.07292 7.40625 0.994792 7 1C6.58333 1 6.19531 1.07812 5.83594 1.23438C5.47656 1.39062 5.15885 1.60417 4.88281 1.875C4.60677 2.14583 4.39062 2.46615 4.23438 2.83594C4.07812 3.20573 4 3.59375 4 4ZM15.5 10.5C15.5 10.7708 15.4583 11.0339 15.375 11.2891C15.2917 11.5443 15.1667 11.7812 15 12V16L13 15L11 16V12C10.8385 11.7812 10.7161 11.5443 10.6328 11.2891C10.5495 11.0339 10.5052 10.7708 10.5 10.5C10.5 10.1562 10.5651 9.83333 10.6953 9.53125C10.8255 9.22917 11.0026 8.96615 11.2266 8.74219C11.4505 8.51823 11.7161 8.33854 12.0234 8.20312C12.3307 8.06771 12.6562 8 13 8C13.3438 8 13.6667 8.0651 13.9688 8.19531C14.2708 8.32552 14.5339 8.50521 14.7578 8.73438C14.9818 8.96354 15.1615 9.22917 15.2969 9.53125C15.4323 9.83333 15.5 10.1562 15.5 10.5ZM13 9C12.7917 9 12.5964 9.03906 12.4141 9.11719C12.2318 9.19531 12.0729 9.30208 11.9375 9.4375C11.8021 9.57292 11.6953 9.73177 11.6172 9.91406C11.5391 10.0964 11.5 10.2917 11.5 10.5C11.5 10.7083 11.5391 10.9036 11.6172 11.0859C11.6953 11.2682 11.8021 11.4271 11.9375 11.5625C12.0729 11.6979 12.2318 11.8047 12.4141 11.8828C12.5964 11.9609 12.7917 12 13 12C13.2083 12 13.4036 11.9609 13.5859 11.8828C13.7682 11.8047 13.9271 11.6979 14.0625 11.5625C14.1979 11.4271 14.3047 11.2682 14.3828 11.0859C14.4609 10.9036 14.5 10.7083 14.5 10.5C14.5 10.2917 14.4609 10.0964 14.3828 9.91406C14.3047 9.73177 14.1979 9.57292 14.0625 9.4375C13.9271 9.30208 13.7682 9.19531 13.5859 9.11719C13.4036 9.03906 13.2083 9 13 9ZM14 14.3828V12.7891C13.6875 12.9297 13.3542 13 13 13C12.6458 13 12.3125 12.9297 12 12.7891V14.3828C12.1667 14.2995 12.3333 14.2188 12.5 14.1406C12.6667 14.0625 12.8333 13.9766 13 13.8828C13.1667 13.9714 13.3333 14.0547 13.5 14.1328C13.6667 14.2109 13.8333 14.2943 14 14.3828Z" fill="currentColor"/>
</svg>
