<svg width="24" height="24" viewBox="0 0 24 24" fill="none" xmlns="http://www.w3.org/2000/svg">
<path d="M3.30039 5.39999C3.0617 5.39999 2.83278 5.49481 2.66399 5.6636C2.49521 5.83238 2.40039 6.0613 2.40039 6.29999C2.40039 6.53869 2.49521 6.76761 2.66399 6.93639C2.83278 7.10517 3.0617 7.19999 3.30039 7.19999H20.7004C20.9391 7.19999 21.168 7.10517 21.3368 6.93639C21.5056 6.76761 21.6004 6.53869 21.6004 6.29999C21.6004 6.0613 21.5056 5.83238 21.3368 5.6636C21.168 5.49481 20.9391 5.39999 20.7004 5.39999H3.30039ZM3.30039 8.99999C3.0617 8.99999 2.83278 9.09482 2.66399 9.2636C2.49521 9.43238 2.40039 9.6613 2.40039 9.89999C2.40039 10.1387 2.49521 10.3676 2.66399 10.5364C2.83278 10.7052 3.0617 10.8 3.30039 10.8H20.7004C20.9391 10.8 21.168 10.7052 21.3368 10.5364C21.5056 10.3676 21.6004 10.1387 21.6004 9.89999C21.6004 9.6613 21.5056 9.43238 21.3368 9.2636C21.168 9.09482 20.9391 8.99999 20.7004 8.99999H3.30039ZM2.40039 13.5C2.40039 13.2613 2.49521 13.0324 2.66399 12.8636C2.83278 12.6948 3.0617 12.6 3.30039 12.6H20.7004C20.9391 12.6 21.168 12.6948 21.3368 12.8636C21.5056 13.0324 21.6004 13.2613 21.6004 13.5C21.6004 13.7387 21.5056 13.9676 21.3368 14.1364C21.168 14.3052 20.9391 14.4 20.7004 14.4H3.30039C3.0617 14.4 2.83278 14.3052 2.66399 14.1364C2.49521 13.9676 2.40039 13.7387 2.40039 13.5ZM3.30039 16.2C3.0617 16.2 2.83278 16.2948 2.66399 16.4636C2.49521 16.6324 2.40039 16.8613 2.40039 17.1C2.40039 17.3387 2.49521 17.5676 2.66399 17.7364C2.83278 17.9052 3.0617 18 3.30039 18H14.7004C14.9391 18 15.168 17.9052 15.3368 17.7364C15.5056 17.5676 15.6004 17.3387 15.6004 17.1C15.6004 16.8613 15.5056 16.6324 15.3368 16.4636C15.168 16.2948 14.9391 16.2 14.7004 16.2H3.30039Z" fill="currentColor"/>
</svg>
