<svg width="32" height="27" viewBox="0 0 32 27" fill="none" xmlns="http://www.w3.org/2000/svg">
<path d="M7.5 13.78C7.50002 12.9322 7.71956 12.0988 8.13725 11.3611C8.55494 10.6233 9.15655 10.0062 9.8835 9.57C9.91899 9.5487 9.94837 9.51858 9.96878 9.48258C9.9892 9.44657 9.99995 9.40589 10 9.3645V5H14V9.3645C14 9.4485 14.044 9.5265 14.1165 9.5695C14.8435 10.0058 15.4452 10.6229 15.8629 11.3608C16.2806 12.0987 16.5001 12.9321 16.5 13.78V24C16.5 24.2652 16.3946 24.5196 16.2071 24.7071C16.0196 24.8946 15.7652 25 15.5 25H8.5C8.23478 25 7.98043 24.8946 7.79289 24.7071C7.60536 24.5196 7.5 24.2652 7.5 24V13.78Z" stroke="white" stroke-width="2" stroke-linecap="round" stroke-linejoin="round"/>
<path d="M10 8H14" stroke="white" stroke-width="2" stroke-linecap="round"/>
<path d="M16.5 14.5H12V22H16.5M16.5 23V13.5M10 9V7M14 9V7" stroke="white" stroke-width="2" stroke-linecap="round" stroke-linejoin="round"/>
<path d="M16.5 8C16.9177 7.26223 17.157 7.00625 17.8839 6.57C17.9194 6.5487 17.9488 6.51858 17.9692 6.48258C17.9896 6.44657 18.0004 6.40589 18.0004 6.3645V2H22.0004V6.3645C22.0004 6.4485 22.0444 6.5265 22.1169 6.5695C22.844 7.00579 23.4456 7.62292 23.8633 8.36079C24.281 9.09865 24.5005 9.93211 24.5004 10.78V21C24.5004 21.2652 24.3951 21.5196 24.2076 21.7071C24.02 21.8946 23.7657 22 23.5004 22H19" stroke="white" stroke-width="2" stroke-linecap="round" stroke-linejoin="round"/>
<path d="M18 5H22" stroke="white" stroke-width="2" stroke-linecap="round"/>
<path d="M24.5 11.5H20V19H24.5M24.5 20V10.5M18 6V4M22 6V4" stroke="white" stroke-width="2" stroke-linecap="round" stroke-linejoin="round"/>
</svg>
