<svg width="23" height="24" viewBox="0 0 23 24" fill="none" xmlns="http://www.w3.org/2000/svg">
<path d="M14.8546 14H14.0975L13.8292 13.73C14.4281 13.004 14.8658 12.1488 15.111 11.2256C15.3562 10.3025 15.4028 9.33416 15.2475 8.39001C14.7971 5.61001 12.5737 3.39001 9.8904 3.05001C8.94703 2.92547 7.98887 3.02778 7.08922 3.34909C6.18957 3.67041 5.37229 4.20222 4.69991 4.90384C4.02753 5.60545 3.51788 6.45827 3.20995 7.39703C2.90202 8.33579 2.80397 9.33562 2.92332 10.32C3.24915 13.12 5.37665 15.44 8.04082 15.91C8.94563 16.0721 9.87359 16.0234 10.7583 15.7676C11.643 15.5117 12.4625 15.055 13.1583 14.43L13.4171 14.71V15.5L17.49 19.75C17.8829 20.16 18.525 20.16 18.9179 19.75C19.3108 19.34 19.3108 18.67 18.9179 18.26L14.8546 14ZM9.10457 14C6.71832 14 4.79207 11.99 4.79207 9.50001C4.79207 7.01 6.71832 5.00001 9.10457 5.00001C11.4908 5.00001 13.4171 7.01 13.4171 9.50001C13.4171 11.99 11.4908 14 9.10457 14Z" fill="white"/>
</svg>
