<svg width="25" height="25" viewBox="0 0 25 25" fill="none" xmlns="http://www.w3.org/2000/svg">
<path d="M7.51172 10.7971C7.51174 9.94799 7.73163 9.11331 8.14998 8.37436C8.56834 7.63542 9.1709 7.01739 9.89901 6.58045C9.93456 6.55911 9.96398 6.52895 9.98443 6.49288C10.0049 6.45682 10.0156 6.41608 10.0157 6.37462V2.00317H14.0221V6.37462C14.0221 6.45875 14.0661 6.53688 14.1387 6.57994C14.8669 7.01693 15.4695 7.63504 15.8879 8.37408C16.3063 9.11312 16.5261 9.9479 16.526 10.7971V21.0334C16.526 21.299 16.4205 21.5538 16.2327 21.7416C16.0448 21.9295 15.7901 22.035 15.5244 22.035H8.51331C8.24767 22.035 7.99291 21.9295 7.80508 21.7416C7.61724 21.5538 7.51172 21.299 7.51172 21.0334V10.7971Z" stroke="white" stroke-width="2" stroke-linecap="round" stroke-linejoin="round"/>
<path d="M10.0156 5.00793H14.022" stroke="white" stroke-width="2" stroke-linecap="round"/>
<path d="M16.526 11.5183H12.0188V19.0302H16.526M16.526 20.0318V10.5167M10.0156 6.00953V4.00635M14.022 6.00953V4.00635" stroke="white" stroke-width="2" stroke-linecap="round" stroke-linejoin="round"/>
</svg>
