<svg width="28" height="28" viewBox="0 0 28 28" fill="none" xmlns="http://www.w3.org/2000/svg">
<path fill-rule="evenodd" clip-rule="evenodd" d="M5.25 3.5H17.5V7H23.1875L26.25 11.0828V21.875H24.3898C24.1964 22.6271 23.7584 23.2935 23.1447 23.7694C22.531 24.2452 21.7765 24.5035 21 24.5035C20.2235 24.5035 19.469 24.2452 18.8553 23.7694C18.2416 23.2935 17.8036 22.6271 17.6102 21.875H9.51475C9.30178 22.6998 8.7953 23.4187 8.09024 23.8968C7.38519 24.3749 6.52996 24.5794 5.68487 24.4721C4.83979 24.3648 4.06286 23.9529 3.49972 23.3137C2.93658 22.6745 2.62589 21.8519 2.62589 21C2.62589 20.1481 2.93658 19.3255 3.49972 18.6863C4.06286 18.0471 4.83979 17.6352 5.68487 17.5279C6.52996 17.4206 7.38519 17.6251 8.09024 18.1032C8.7953 18.5813 9.30178 19.3002 9.51475 20.125H17.6102C17.8036 19.3729 18.2416 18.7065 18.8553 18.2306C19.469 17.7548 20.2235 17.4965 21 17.4965C21.7765 17.4965 22.531 17.7548 23.1447 18.2306C23.7584 18.7065 24.1964 19.3729 24.3898 20.125H24.5V12.25H15.75V5.25H5.25V3.5ZM11.375 10.5H3.5V8.75H11.375V10.5ZM9.625 15.75H1.75V14H9.625V15.75ZM6.125 19.25C5.66087 19.25 5.21575 19.4344 4.88756 19.7626C4.55937 20.0908 4.375 20.5359 4.375 21C4.375 21.4641 4.55937 21.9092 4.88756 22.2374C5.21575 22.5656 5.66087 22.75 6.125 22.75C6.58913 22.75 7.03425 22.5656 7.36244 22.2374C7.69063 21.9092 7.875 21.4641 7.875 21C7.875 20.5359 7.69063 20.0908 7.36244 19.7626C7.03425 19.4344 6.58913 19.25 6.125 19.25ZM21 19.25C20.5359 19.25 20.0908 19.4344 19.7626 19.7626C19.4344 20.0908 19.25 20.5359 19.25 21C19.25 21.4641 19.4344 21.9092 19.7626 22.2374C20.0908 22.5656 20.5359 22.75 21 22.75C21.4641 22.75 21.9092 22.5656 22.2374 22.2374C22.5656 21.9092 22.75 21.4641 22.75 21C22.75 20.5359 22.5656 20.0908 22.2374 19.7626C21.9092 19.4344 21.4641 19.25 21 19.25Z" fill="currentColor"/>
</svg>
