<svg width="30" height="30" viewBox="0 0 38 38" fill="none" xmlns="http://www.w3.org/2000/svg">
<path d="M6.33334 28.5C5.88473 28.5 5.50895 28.348 5.20601 28.044C4.90306 27.74 4.75106 27.3642 4.75001 26.9167C4.74895 26.4691 4.90095 26.0933 5.20601 25.7893C5.51106 25.4853 5.88684 25.3333 6.33334 25.3333H31.6667C32.1153 25.3333 32.4916 25.4853 32.7956 25.7893C33.0996 26.0933 33.2511 26.4691 33.25 26.9167C33.2489 27.3642 33.0969 27.7405 32.794 28.0456C32.4911 28.3506 32.1153 28.5021 31.6667 28.5H6.33334ZM6.33334 20.5833C5.88473 20.5833 5.50895 20.4313 5.20601 20.1273C4.90306 19.8233 4.75106 19.4476 4.75001 19C4.74895 18.5524 4.90095 18.1767 5.20601 17.8727C5.51106 17.5687 5.88684 17.4167 6.33334 17.4167H31.6667C32.1153 17.4167 32.4916 17.5687 32.7956 17.8727C33.0996 18.1767 33.2511 18.5524 33.25 19C33.2489 19.4476 33.0969 19.8239 32.794 20.1289C32.4911 20.434 32.1153 20.5854 31.6667 20.5833H6.33334ZM6.33334 12.6667C5.88473 12.6667 5.50895 12.5147 5.20601 12.2107C4.90306 11.9067 4.75106 11.5309 4.75001 11.0833C4.74895 10.6358 4.90095 10.26 5.20601 9.956C5.51106 9.652 5.88684 9.5 6.33334 9.5H31.6667C32.1153 9.5 32.4916 9.652 32.7956 9.956C33.0996 10.26 33.2511 10.6358 33.25 11.0833C33.2489 11.5309 33.0969 11.9072 32.794 12.2122C32.4911 12.5173 32.1153 12.6688 31.6667 12.6667H6.33334Z" fill="#2B2B2B"/>
</svg>
