<svg width="31" height="31" viewBox="0 0 31 31" fill="none" xmlns="http://www.w3.org/2000/svg">
<path d="M10.821 21.9004L15.4587 17.2626L20.0965 21.9004L21.9 20.0968L17.2623 15.4591L21.9 10.8213L20.0965 9.01779L15.4587 13.6555L10.821 9.01779L9.01746 10.8213L13.6552 15.4591L9.01746 20.0968L10.821 21.9004ZM15.4587 28.3416C13.6766 28.3416 12.0019 28.0033 10.4345 27.3265C8.86716 26.6497 7.50375 25.7321 6.34432 24.5735C5.18489 23.4149 4.26722 22.0515 3.59132 20.4833C2.91541 18.915 2.57703 17.2403 2.57617 15.4591C2.57531 13.6778 2.9137 12.0031 3.59132 10.4349C4.26894 8.86664 5.18661 7.50323 6.34432 6.34466C7.50204 5.18609 8.86544 4.26842 10.4345 3.59165C12.0036 2.91489 13.6784 2.57651 15.4587 2.57651C17.2391 2.57651 18.9138 2.91489 20.4829 3.59165C22.052 4.26842 23.4154 5.18609 24.5732 6.34466C25.7309 7.50323 26.649 8.86664 27.3274 10.4349C28.0059 12.0031 28.3439 13.6778 28.3413 15.4591C28.3387 17.2403 28.0003 18.915 27.3262 20.4833C26.652 22.0515 25.7343 23.4149 24.5732 24.5735C23.412 25.7321 22.0486 26.6502 20.4829 27.3278C18.9173 28.0054 17.2425 28.3434 15.4587 28.3416Z" fill="white"/>
</svg>
