<svg width="29" height="28" viewBox="0 0 29 28" fill="none" xmlns="http://www.w3.org/2000/svg">
<path d="M18.7292 23.2458L13.5937 18.2875L15.2854 16.6542L18.7292 19.9792L25.5562 13.3875L27.2479 15.0208L18.7292 23.2458ZM25.375 11.6667H22.9583V5.83333H20.5417V9.33333H8.45833V5.83333H6.04167V22.1667H13.2917V24.5H6.04167C5.37708 24.5 4.80836 24.2717 4.3355 23.8152C3.86264 23.3586 3.62581 22.8091 3.625 22.1667V5.83333C3.625 5.19167 3.86183 4.64256 4.3355 4.186C4.80917 3.72945 5.37789 3.50078 6.04167 3.5H11.0865C11.308 2.81945 11.741 2.26061 12.3854 1.8235C13.0299 1.38639 13.7347 1.16745 14.5 1.16667C15.3056 1.16667 16.0257 1.38561 16.6605 1.8235C17.2953 2.26139 17.723 2.82022 17.9437 3.5H22.9583C23.6229 3.5 24.192 3.72867 24.6657 4.186C25.1394 4.64333 25.3758 5.19245 25.375 5.83333V11.6667ZM14.5 5.83333C14.8424 5.83333 15.1295 5.72133 15.3615 5.49733C15.5935 5.27333 15.7091 4.99645 15.7083 4.66667C15.7075 4.33689 15.5915 4.06 15.3603 3.836C15.1291 3.612 14.8424 3.5 14.5 3.5C14.1576 3.5 13.8709 3.612 13.6397 3.836C13.4085 4.06 13.2925 4.33689 13.2917 4.66667C13.2909 4.99645 13.4069 5.27372 13.6397 5.4985C13.8725 5.72328 14.1592 5.83489 14.5 5.83333Z" fill="white"/>
</svg>
