<svg width="24" height="24" viewBox="0 0 24 24" fill="none" xmlns="http://www.w3.org/2000/svg">
<g clip-path="url(#clip0_646_218)">
<path d="M4.49805 5.99649V0.749573H8.99541V5.95651L4.49805 5.99649Z" stroke="currentColor" stroke-width="1.5" stroke-linecap="round" stroke-linejoin="round"/>
<path d="M9.74472 12.7425H1.54953C1.33748 12.7425 1.13412 12.6583 0.984177 12.5084C0.834236 12.3584 0.75 12.155 0.75 11.943V1.5491C0.75 1.33705 0.834236 1.13369 0.984177 0.98375C1.13412 0.833809 1.33748 0.749573 1.54953 0.749573H11.9934M14.9916 3.74781C14.9916 2.95263 15.3075 2.19002 15.8698 1.62774C16.4321 1.06546 17.1947 0.749573 17.9899 0.749573C18.7851 0.749573 19.5477 1.06546 20.1099 1.62774C20.6722 2.19002 20.9881 2.95263 20.9881 3.74781H12.4931M20.4484 6.50619C20.1707 6.89966 19.8023 7.22044 19.3743 7.44138C18.9464 7.66231 18.4715 7.7769 17.9899 7.77545C17.5074 7.77577 17.0319 7.65965 16.6039 7.43694C16.1759 7.21423 15.8079 6.89151 15.5313 6.4962M23.2368 14.4915C23.2368 13.8025 23.1011 13.1202 22.8374 12.4836C22.5737 11.847 22.1872 11.2686 21.7 10.7814C21.2128 10.2941 20.6344 9.90766 19.9978 9.64398C19.3612 9.3803 18.6789 9.24458 17.9899 9.24458C17.3008 9.24458 16.6185 9.3803 15.982 9.64398C15.3454 9.90766 14.767 10.2941 14.2797 10.7814C13.7925 11.2686 13.406 11.847 13.1424 12.4836C12.8787 13.1202 12.743 13.8025 12.743 14.4915V15.7408H14.9916L15.7412 23.2364H20.2386L20.9881 15.7408H23.2368V14.4915Z" stroke="currentColor" stroke-width="1.5" stroke-linecap="round" stroke-linejoin="round"/>
</g>
<defs>
<clipPath id="clip0_646_218">
<rect width="23.9859" height="23.9859" fill="white"/>
</clipPath>
</defs>
</svg>
