<svg width="30" height="30" viewBox="0 0 30 30" fill="none" xmlns="http://www.w3.org/2000/svg">
<path d="M13.75 18.75H10C8.3424 18.75 6.75269 19.4085 5.58058 20.5806C4.40848 21.7527 3.75 23.3424 3.75 25V26.25H13.8125M23.125 18.75V17.1875M23.125 18.75C22.1304 18.75 21.1766 19.1451 20.4733 19.8483C19.7701 20.5516 19.375 21.5054 19.375 22.5C19.375 23.4946 19.7701 24.4484 20.4733 25.1517C21.1766 25.8549 22.1304 26.25 23.125 26.25M23.125 18.75C24.1196 18.75 25.0734 19.1451 25.7767 19.8483C26.4799 20.5516 26.875 21.5054 26.875 22.5C26.875 23.4946 26.4799 24.4484 25.7767 25.1517C25.0734 25.8549 24.1196 26.25 23.125 26.25M23.125 26.25V27.8125M19.8775 20.625L18.5238 19.8438M26.3725 24.375L27.7262 25.1562M26.3725 20.625L27.7262 19.8438M19.875 24.375L18.5225 25.1562M20 9.375C20 10.8668 19.4074 12.2976 18.3525 13.3525C17.2976 14.4074 15.8668 15 14.375 15C12.8832 15 11.4524 14.4074 10.3975 13.3525C9.34263 12.2976 8.75 10.8668 8.75 9.375C8.75 7.88316 9.34263 6.45242 10.3975 5.39752C11.4524 4.34263 12.8832 3.75 14.375 3.75C15.8668 3.75 17.2976 4.34263 18.3525 5.39752C19.4074 6.45242 20 7.88316 20 9.375Z" stroke="currentColor" stroke-width="2" stroke-linecap="square"/>
</svg>
