<svg width="24" height="24" viewBox="0 0 24 24" fill="none" xmlns="http://www.w3.org/2000/svg">
<path d="M8.625 8.5H4.125C3.85978 8.5 3.60543 8.39464 3.41789 8.20711C3.23036 8.01957 3.125 7.76522 3.125 7.5V3C3.125 2.73478 3.23036 2.48043 3.41789 2.29289C3.60543 2.10536 3.85978 2 4.125 2C4.39022 2 4.64457 2.10536 4.83211 2.29289C5.01964 2.48043 5.125 2.73478 5.125 3V6.5H8.625C8.89022 6.5 9.14457 6.60536 9.33211 6.79289C9.51964 6.98043 9.625 7.23478 9.625 7.5C9.625 7.76522 9.51964 8.01957 9.33211 8.20711C9.14457 8.39464 8.89022 8.5 8.625 8.5Z" fill="currentColor"/>
<path d="M21.0004 13C20.7352 13 20.4808 12.8947 20.2933 12.7071C20.1057 12.5196 20.0004 12.2652 20.0004 12C20.0012 10.2395 19.4208 8.52806 18.3495 7.13112C17.2781 5.73418 15.7757 4.7299 14.0752 4.27413C12.3748 3.81837 10.5715 3.93659 8.94507 4.61046C7.31869 5.28432 5.96019 6.47616 5.08039 8.00101C4.94752 8.23055 4.7289 8.39791 4.47263 8.46627C4.21636 8.53463 3.94344 8.49838 3.71389 8.36551C3.48435 8.23264 3.31699 8.01402 3.24863 7.75775C3.18027 7.50148 3.21652 7.22855 3.34939 6.99901C4.44965 5.09325 6.14808 3.60386 8.1812 2.7619C10.2143 1.91994 12.4685 1.77248 14.594 2.3424C16.7195 2.91232 18.5974 4.16775 19.9366 5.91394C21.2757 7.66012 22.0012 9.79944 22.0004 12C22.0004 12.2652 21.895 12.5196 21.7075 12.7071C21.52 12.8947 21.2656 13 21.0004 13ZM19.8754 22C19.6102 22 19.3558 21.8947 19.1683 21.7071C18.9807 21.5196 18.8754 21.2652 18.8754 21V17.5H15.3754C15.1102 17.5 14.8558 17.3947 14.6683 17.2071C14.4807 17.0196 14.3754 16.7652 14.3754 16.5C14.3754 16.2348 14.4807 15.9804 14.6683 15.7929C14.8558 15.6054 15.1102 15.5 15.3754 15.5H19.8754C20.1406 15.5 20.395 15.6054 20.5825 15.7929C20.77 15.9804 20.8754 16.2348 20.8754 16.5V21C20.8754 21.2652 20.77 21.5196 20.5825 21.7071C20.395 21.8947 20.1406 22 19.8754 22Z" fill="currentColor"/>
<path d="M12 22C9.34865 21.9974 6.80665 20.9429 4.93186 19.0681C3.05707 17.1934 2.00265 14.6514 2 12C2 11.7348 2.10536 11.4804 2.29289 11.2929C2.48043 11.1054 2.73478 11 3 11C3.26522 11 3.51957 11.1054 3.70711 11.2929C3.89464 11.4804 4 11.7348 4 12C3.99924 13.7605 4.57956 15.472 5.65091 16.8689C6.72225 18.2658 8.22472 19.2701 9.92516 19.7259C11.6256 20.1816 13.4289 20.0634 15.0553 19.3896C16.6817 18.7157 18.0402 17.5239 18.92 15.999C18.9858 15.8853 19.0733 15.7858 19.1776 15.7059C19.2819 15.6261 19.4009 15.5676 19.5278 15.5337C19.6547 15.4999 19.787 15.4914 19.9172 15.5087C20.0473 15.5259 20.1728 15.5687 20.2865 15.6345C20.4002 15.7003 20.4997 15.7878 20.5796 15.8921C20.6594 15.9964 20.7179 16.1154 20.7518 16.2423C20.7856 16.3692 20.7941 16.5015 20.7768 16.6317C20.7596 16.7618 20.7168 16.8873 20.651 17.001C19.7717 18.5176 18.5102 19.7773 16.9923 20.6544C15.4744 21.5315 13.7531 21.9955 12 22Z" fill="currentColor"/>
</svg>
