<svg width="22" height="23" viewBox="0 0 22 23" fill="none" xmlns="http://www.w3.org/2000/svg">
<path d="M8.8 17.1141V10.1644L1.46667 6.46405V16.64L7.7 19.7969L7.34479 21.2655L0 17.5651V4.79889L9.53333 0L19.0667 4.79889V7.92107C18.5319 8.00587 18.0431 8.17932 17.6 8.44143V6.46405L10.2667 10.1644V15.634L8.8 17.1141ZM7.17292 2.83308L13.8646 6.69532L16.6948 5.26144L9.53333 1.64203L7.17292 2.83308ZM9.53333 8.88084L12.2833 7.49321L5.59167 3.63097L2.37188 5.26144L9.53333 8.88084ZM19.7083 9.70186C20.0292 9.70186 20.3271 9.75968 20.6021 9.87531C20.8771 9.99095 21.1215 10.149 21.3354 10.3494C21.5493 10.5499 21.7097 10.7927 21.8167 11.0779C21.9236 11.3632 21.9847 11.6677 22 11.9915C22 12.2921 21.9427 12.5851 21.8281 12.8703C21.7135 13.1555 21.5493 13.4061 21.3354 13.6219L13.1198 21.913L8.8 23L9.87708 18.6405L18.0927 10.361C18.3142 10.1374 18.5625 9.97168 18.8375 9.86375C19.1125 9.75582 19.4028 9.70186 19.7083 9.70186ZM20.2927 12.5812C20.4531 12.4193 20.5333 12.2227 20.5333 11.9915C20.5333 11.7525 20.4569 11.5597 20.3042 11.4133C20.1514 11.2668 19.9528 11.1897 19.7083 11.182C19.6014 11.182 19.4983 11.1974 19.399 11.2283C19.2997 11.2591 19.2118 11.3169 19.1354 11.4017L11.2063 19.4037L10.8167 20.9648L12.3635 20.5716L20.2927 12.5812Z" fill="currentColor"/>
</svg>
