<svg width="21" height="22" viewBox="0 0 21 22" fill="none" xmlns="http://www.w3.org/2000/svg">
<path d="M9.20404 22C8.70772 22 8.28051 21.835 7.92243 21.505C7.56434 21.175 7.34816 20.7717 7.2739 20.295L7.02574 18.48C6.78676 18.3883 6.56176 18.2783 6.35074 18.15C6.13971 18.0217 5.93272 17.8842 5.72978 17.7375L4.02022 18.4525C3.56066 18.6542 3.1011 18.6725 2.64154 18.5075C2.18199 18.3425 1.82353 18.0492 1.56618 17.6275L0.27022 15.3725C0.0128675 14.9508 -0.0606617 14.5017 0.0496324 14.025C0.159927 13.5483 0.408088 13.1542 0.794118 12.8425L2.25551 11.7425C2.23713 11.6142 2.22794 11.4902 2.22794 11.3707V10.6282C2.22794 10.5094 2.23713 10.3858 2.25551 10.2575L0.794118 9.1575C0.408088 8.84583 0.159927 8.45167 0.0496324 7.975C-0.0606617 7.49833 0.0128675 7.04917 0.27022 6.6275L1.56618 4.3725C1.82353 3.95083 2.18199 3.6575 2.64154 3.4925C3.1011 3.3275 3.56066 3.34583 4.02022 3.5475L5.72978 4.2625C5.93199 4.11583 6.14338 3.97833 6.36397 3.85C6.58456 3.72167 6.80515 3.61167 7.02574 3.52L7.2739 1.705C7.34743 1.22833 7.5636 0.825 7.92243 0.495C8.28125 0.165 8.70845 0 9.20404 0H11.796C12.2923 0 12.7199 0.165 13.0787 0.495C13.4375 0.825 13.6533 1.22833 13.7261 1.705L13.9743 3.52C14.2132 3.61167 14.4386 3.72167 14.6504 3.85C14.8621 3.97833 15.0688 4.11583 15.2702 4.2625L16.9798 3.5475C17.4393 3.34583 17.8989 3.3275 18.3585 3.4925C18.818 3.6575 19.1765 3.95083 19.4338 4.3725L20.7298 6.6275C20.9871 7.04917 21.0607 7.49833 20.9504 7.975C20.8401 8.45167 20.5919 8.84583 20.2059 9.1575L18.7445 10.2575C18.7629 10.3858 18.7721 10.5098 18.7721 10.6293V11.3707C18.7721 11.4902 18.7537 11.6142 18.7169 11.7425L20.1783 12.8425C20.5643 13.1542 20.8125 13.5483 20.9228 14.025C21.0331 14.5017 20.9596 14.9508 20.7022 15.3725L19.3787 17.6275C19.1213 18.0492 18.7629 18.3425 18.3033 18.5075C17.8438 18.6725 17.3842 18.6542 16.9246 18.4525L15.2702 17.7375C15.068 17.8842 14.8566 18.0217 14.636 18.15C14.4154 18.2783 14.1949 18.3883 13.9743 18.48L13.7261 20.295C13.6526 20.7717 13.4368 21.175 13.0787 21.505C12.7206 21.835 12.293 22 11.796 22H9.20404ZM9.39706 19.8H11.5754L11.9614 16.885C12.5312 16.7383 13.0599 16.5231 13.5474 16.2393C14.0349 15.9555 14.4805 15.6116 14.8842 15.2075L17.614 16.335L18.6893 14.465L16.318 12.6775C16.4099 12.4208 16.4743 12.1506 16.511 11.8668C16.5478 11.583 16.5662 11.2941 16.5662 11C16.5662 10.7059 16.5478 10.4174 16.511 10.1343C16.4743 9.85123 16.4099 9.58063 16.318 9.3225L18.6893 7.535L17.614 5.665L14.8842 6.82C14.4798 6.39833 14.0342 6.0456 13.5474 5.7618C13.0607 5.478 12.532 5.2624 11.9614 5.115L11.6029 2.2H9.42463L9.0386 5.115C8.46875 5.26167 7.94044 5.47727 7.45368 5.7618C6.96691 6.04633 6.52096 6.3899 6.11581 6.7925L3.38603 5.665L2.31066 7.535L4.68199 9.295C4.59007 9.57 4.52574 9.845 4.48897 10.12C4.45221 10.395 4.43382 10.6883 4.43382 11C4.43382 11.2933 4.45221 11.5775 4.48897 11.8525C4.52574 12.1275 4.59007 12.4025 4.68199 12.6775L2.31066 14.465L3.38603 16.335L6.11581 15.18C6.52022 15.6017 6.96618 15.9548 7.45368 16.2393C7.94118 16.5238 8.46948 16.7391 9.0386 16.885L9.39706 19.8ZM10.5551 14.85C11.6213 14.85 12.5312 14.4742 13.2849 13.7225C14.0386 12.9708 14.4154 12.0633 14.4154 11C14.4154 9.93667 14.0386 9.02917 13.2849 8.2775C12.5312 7.52583 11.6213 7.15 10.5551 7.15C9.47059 7.15 8.55625 7.52583 7.81213 8.2775C7.06801 9.02917 6.69559 9.93667 6.69485 11C6.69412 12.0633 7.06654 12.9708 7.81213 13.7225C8.55772 14.4742 9.47206 14.85 10.5551 14.85Z" fill="currentColor"/>
</svg>
