<svg width="24" height="20" viewBox="0 0 24 20" fill="none" xmlns="http://www.w3.org/2000/svg">
<path d="M16.8 17.3333V20H0V17.3333C0 17.3333 0 12 8.4 12C16.8 12 16.8 17.3333 16.8 17.3333ZM12.6 4.6667C12.6 3.74373 12.3537 2.84148 11.8922 2.07405C11.4307 1.30662 10.7747 0.708485 10.0073 0.355277C9.23982 0.00206919 8.39534 -0.0903462 7.58062 0.0897178C6.7659 0.269782 6.01753 0.714238 5.43015 1.36688C4.84277 2.01952 4.44276 2.85104 4.2807 3.75628C4.11864 4.66153 4.20182 5.59984 4.51971 6.45256C4.83759 7.30527 5.37592 8.03411 6.06661 8.54689C6.75729 9.05966 7.56932 9.33336 8.4 9.33336C9.51391 9.33336 10.5822 8.84169 11.3698 7.96653C12.1575 7.09136 12.6 5.90438 12.6 4.6667ZM16.728 12C17.4657 12.6343 18.0693 13.4406 18.4964 14.362C18.9235 15.2835 19.1637 16.2977 19.2 17.3333V20H24V17.3333C24 17.3333 24 12.4934 16.728 12ZM15.6 4.90619e-05C14.7741 -0.00421911 13.9666 0.27009 13.284 0.786714C14.0129 1.91836 14.4049 3.27509 14.4049 4.6667C14.4049 6.05832 14.0129 7.41505 13.284 8.54669C13.9666 9.06332 14.7741 9.33763 15.6 9.33336C16.7139 9.33336 17.7822 8.84169 18.5699 7.96653C19.3575 7.09136 19.8 5.90438 19.8 4.6667C19.8 3.42903 19.3575 2.24205 18.5699 1.36688C17.7822 0.491713 16.7139 4.90619e-05 15.6 4.90619e-05Z" fill="white"/>
</svg>
