<svg width="22" height="22" viewBox="0 0 22 22" fill="none" xmlns="http://www.w3.org/2000/svg">
<path d="M14.4375 0L22 3.8129V12.3161L20.625 11.6228V5.36189L15.125 8.13491V10.9296L13.75 11.6228V8.13491L8.25 5.36189V7.82078L6.875 7.12752V3.8129L14.4375 0ZM14.4375 6.93255L16.3389 5.96849L11.3652 3.09798L9.09863 4.24618L14.4375 6.93255ZM17.8213 5.23191L19.7764 4.24618L14.4375 1.54899L12.8369 2.3614L17.8213 5.23191ZM12.375 12.3161L11 13.0094V12.9985L6.875 15.0783V20.0069L11 17.9163V19.4761L6.1875 21.9025L0 18.772V11.4495L6.1875 8.32989L12.375 11.4495V12.3161ZM5.5 20.0069V15.0783L1.375 12.9985V17.9163L5.5 20.0069ZM6.1875 13.8759L10.1514 11.8828L6.1875 9.87888L2.22363 11.8828L6.1875 13.8759ZM12.375 13.8651L17.1875 11.4387L22 13.8651V19.5736L17.1875 22L12.375 19.5736V13.8651ZM16.5 20.1044V16.8006L13.75 15.4141V18.7179L16.5 20.1044ZM20.625 18.7179V15.4141L17.875 16.8006V20.1044L20.625 18.7179ZM17.1875 15.5982L19.7764 14.2875L17.1875 12.9877L14.5986 14.2875L17.1875 15.5982Z" fill="white"/>
</svg>
