<svg width="21" height="24" viewBox="0 0 21 24" fill="none" xmlns="http://www.w3.org/2000/svg">
<path d="M9.33333 20.91V12.69L2.33333 8.52V16.74L9.33333 20.91ZM11.6667 20.91L18.6667 16.74V8.52L11.6667 12.69V20.91ZM9.33333 23.67L1.16667 18.84C0.797222 18.62 0.510611 18.33 0.306833 17.97C0.103056 17.61 0.000777778 17.21 0 16.77V7.23C0 6.79 0.102278 6.39 0.306833 6.03C0.511389 5.67 0.798 5.38 1.16667 5.16L9.33333 0.33C9.70278 0.11 10.0917 0 10.5 0C10.9083 0 11.2972 0.11 11.6667 0.33L19.8333 5.16C20.2028 5.38 20.4898 5.67 20.6943 6.03C20.8989 6.39 21.0008 6.79 21 7.23V16.77C21 17.21 20.8981 17.61 20.6943 17.97C20.4906 18.33 20.2036 18.62 19.8333 18.84L11.6667 23.67C11.2972 23.89 10.9083 24 10.5 24C10.0917 24 9.70278 23.89 9.33333 23.67ZM15.1667 7.83L17.4125 6.51L10.5 2.4L8.225 3.75L15.1667 7.83ZM10.5 10.62L12.775 9.27L5.8625 5.16L3.5875 6.51L10.5 10.62Z" fill="white"/>
</svg>
