<svg width="20" height="16" viewBox="0 0 20 16" fill="none" xmlns="http://www.w3.org/2000/svg">
<path d="M1.11111 16C0.7963 16 0.532596 15.872 0.320004 15.616C0.107411 15.36 0.000744572 15.0435 3.83141e-06 14.6666C-0.000736909 14.2898 0.10593 13.9733 0.320004 13.7173C0.534078 13.4613 0.797781 13.3333 1.11111 13.3333H18.8889C19.2037 13.3333 19.4678 13.4613 19.6811 13.7173C19.8944 13.9733 20.0007 14.2898 20 14.6666C19.9993 15.0435 19.8926 15.3604 19.68 15.6173C19.4674 15.8742 19.2037 16.0018 18.8889 16H1.11111ZM1.11111 9.33332C0.7963 9.33332 0.532596 9.20532 0.320004 8.94932C0.107411 8.69332 0.000744572 8.37688 3.83141e-06 7.99999C-0.000736909 7.6231 0.10593 7.30666 0.320004 7.05066C0.534078 6.79466 0.797781 6.66666 1.11111 6.66666H18.8889C19.2037 6.66666 19.4678 6.79466 19.6811 7.05066C19.8944 7.30666 20.0007 7.6231 20 7.99999C19.9993 8.37688 19.8926 8.69377 19.68 8.95066C19.4674 9.20755 19.2037 9.3351 18.8889 9.33332H1.11111ZM1.11111 2.66666C0.7963 2.66666 0.532596 2.53866 0.320004 2.28266C0.107411 2.02666 0.000744572 1.71022 3.83141e-06 1.33333C-0.000736909 0.956443 0.10593 0.639999 0.320004 0.384C0.534078 0.128 0.797781 0 1.11111 0H18.8889C19.2037 0 19.4678 0.128 19.6811 0.384C19.8944 0.639999 20.0007 0.956443 20 1.33333C19.9993 1.71022 19.8926 2.02711 19.68 2.284C19.4674 2.54089 19.2037 2.66844 18.8889 2.66666H1.11111Z" fill="white"/>
</svg>
